<svg clip-rule="evenodd" fill-rule="evenodd" stroke-linejoin="round" stroke-miterlimit="2" viewBox="0 0 64 64" xmlns="http://www.w3.org/2000/svg"><path d="m-.00002 0h64v64h-64z" fill="none"/><g fill-rule="nonzero"><path d="m30 6h-9.178l2 2h7.178v22h-22v-7.178l-2-2v9.178c0 1.104.896 2 2 2h22c1.104 0 2-.896 2-2v-22c0-1.104-.896-2-2-2z" transform="matrix(-2 0 0 2 69.9688 -3.426)"/><path d="m69.122 94.146-40.625 33.854 40.625 33.854c1.823 1.519 2.878 3.773 2.878 6.146 0 4.388-3.611 8-8 8-1.871 0-3.685-.657-5.122-1.855l-48-40c-1.822-1.519-2.878-3.773-2.878-6.145s1.056-4.626 2.878-6.145l48-40c1.445-1.224 3.278-1.896 5.171-1.896 4.389 0 8 3.611 8 8 0 2.395-1.075 4.667-2.927 6.186z" transform="matrix(.212644 0 0 .295274 22.266987 -12.036)"/><path d="m245.122 121.855-48-40c-1.445-1.224-3.278-1.896-5.171-1.896-4.389 0-8 3.611-8 8 0 2.395 1.075 4.667 2.927 6.186l40.625 33.855-40.625 33.854c-1.823 1.519-2.878 3.773-2.878 6.146 0 4.388 3.611 8 8 8 1.871 0 3.685-.657 5.122-1.855l48-40c1.822-1.519 2.878-3.773 2.878-6.145s-1.056-4.626-2.878-6.145z" transform="matrix(.212644 0 0 .295274 5.232395 -12.036)"/></g></svg>